<!-- icon666.com - MILLIONS vector ICONS FREE --><svg version="1.1" id="Capa_1" xmlns="http://www.w3.org/2000/svg" xmlns:xlink="http://www.w3.org/1999/xlink" x="0px" y="0px" viewBox="0 0 328.231 328.231" style="enable-background:new 0 0 328.231 328.231;" xml:space="preserve"><g><g><path style="fill: rgb(255, 255, 255);" d="M164.113,80.243c-18.939,0-36.877,4.264-52.933,11.857l4.819,15.947 c2.094-1.05,4.166-2.132,6.337-3.046c-1.757,2.268-3.448,4.683-5.069,7.223l6.723,22.262 c8.175-18.477,19.417-31.438,31.971-35.446v60.183h-24.857l-0.413,1.148l-3.884,10.758l-1.594,4.411h30.752v57.388h-43.377 c-1.343-9.181-2.11-18.787-2.11-28.691s0.767-19.515,2.11-28.691h8.42l-2.551-1.887l-4.966-3.677l-4.226-3.133l-1.447-1.071 l-0.522-1.724l-1.458-4.824l-3.796-12.537c-1.197,4.047-2.263,8.229-3.198,12.537H66.427c6.636-14.343,16.274-27,28.196-37.1 l-5.113-16.921C59.52,127.84,40.124,163.77,40.124,204.237c0,68.478,55.511,123.994,123.994,123.994 s123.989-55.511,123.989-123.994S232.591,80.243,164.113,80.243z M172.272,99.045c17.606,5.619,32.64,28.925,40.211,60.183 h-40.211V99.045z M172.272,175.546h43.371c1.343,9.181,2.11,18.787,2.11,28.691s-0.767,19.515-2.11,28.691h-43.371V175.546z M271.79,204.237c0,9.948-1.463,19.543-4.003,28.697H232.21c1.207-9.181,1.86-18.776,1.86-28.691c0-9.915-0.653-19.51-1.86-28.691 h35.577C270.327,184.7,271.79,194.289,271.79,204.237z M172.272,309.428v-60.178h40.211 C204.911,280.509,189.878,303.81,172.272,309.428z M155.954,249.251v60.178c-17.606-5.619-32.645-28.92-40.216-60.183h40.216 V249.251z M96.01,175.546c-1.207,9.181-1.86,18.776-1.86,28.691c0,9.915,0.653,19.51,1.86,28.691H60.439 c-2.535-9.154-4.003-18.748-4.003-28.697c0-9.948,1.463-19.543,4.003-28.691H96.01V175.546z M66.427,249.251h32.417 c4.775,21.919,12.961,40.635,23.491,54.222C97.609,293.024,77.67,273.547,66.427,249.251z M205.896,303.473 c10.53-13.587,18.716-32.303,23.486-54.222h32.417C250.556,273.547,230.616,293.024,205.896,303.473z M229.382,159.229 c-4.775-21.919-12.956-40.635-23.486-54.227c24.721,10.448,44.666,29.931,55.903,54.227 C261.799,159.229,229.382,159.229,229.382,159.229z" fill="#010002"></path><path style="fill: rgb(255, 255, 255);" d="M71.562,3.394C53.928,8.719,41.261,18.417,43.262,25.052l11.123-3.361l9.241,30.584 C52.721,63.55,48.071,80.226,52.928,96.304l85.595-25.863c-4.857-16.078-17.965-27.391-33.287-30.742L95.994,9.116l11.123-3.361 C105.115-0.876,89.195-1.931,71.562,3.394z" fill="#010002"></path><polygon style="fill: rgb(255, 255, 255);" points="91.627,93.416 94.177,101.857 99.214,118.523 104.996,137.668 111.512,159.229 112.491,162.481 114.601,164.042 121.683,169.286 125.316,159.229 125.566,158.527 120.742,142.553 113.508,118.604 111.098,110.631 106.247,94.575 104.702,89.467 " fill="#010002"></polygon></g></g></svg>